<svg width="16" height="16" viewBox="0 0 16 16" fill="none" xmlns="http://www.w3.org/2000/svg">
<g id="briefcase">
<path id="Union" d="M6.5 1C5.67173 1 5 1.67117 5 2.49976V3H1.5C0.671573 3 0 3.67157 0 4.5V12.5C0 13.3284 0.671573 14 1.5 14H14.5C15.3284 14 16 13.3284 16 12.5V4.5C16 3.67157 15.3284 3 14.5 3H11V2.49976C11 1.67117 10.3283 1 9.5 1H6.5ZM6.5 2H9.5C9.7763 2 10 2.22463 10 2.50061V3H6V2.49976C6 2.22377 6.2237 2 6.5 2ZM8.38649 8.91441L15 7.15081V12.5C15 12.7761 14.7761 13 14.5 13H1.5C1.22386 13 1 12.7761 1 12.5V7.15081L7.61351 8.91441C7.86674 8.98194 8.13326 8.98194 8.38649 8.91441ZM1.5 4H14.5C14.7761 4 15 4.22386 15 4.5V6.11586L8.12883 7.94817C8.04442 7.97068 7.95558 7.97068 7.87117 7.94817L1 6.11586V4.5C1 4.22386 1.22386 4 1.5 4Z" fill="#624BFF"/>
</g>
</svg>
