<svg width="36" height="36" viewBox="0 0 36 36" fill="none" xmlns="http://www.w3.org/2000/svg">
<circle cx="18" cy="18" r="18" fill="#F4F3F6"/>
<path d="M24.7099 13.21C24.617 13.1163 24.5064 13.0419 24.3845 12.9911C24.2627 12.9403 24.132 12.9142 23.9999 12.9142C23.8679 12.9142 23.7372 12.9403 23.6154 12.9911C23.4935 13.0419 23.3829 13.1163 23.29 13.21L15.84 20.67L12.7099 17.53C12.6134 17.4367 12.4995 17.3634 12.3746 17.3142C12.2498 17.265 12.1165 17.2409 11.9823 17.2432C11.8481 17.2455 11.7157 17.2743 11.5926 17.3278C11.4695 17.3812 11.3582 17.4585 11.2649 17.555C11.1717 17.6515 11.0984 17.7654 11.0492 17.8903C11 18.0152 10.9759 18.1485 10.9782 18.2827C10.9805 18.4168 11.0092 18.5493 11.0627 18.6723C11.1162 18.7954 11.1934 18.9067 11.2899 19L15.13 22.84C15.2229 22.9337 15.3335 23.0081 15.4554 23.0589C15.5772 23.1096 15.7079 23.1358 15.84 23.1358C15.972 23.1358 16.1027 23.1096 16.2245 23.0589C16.3464 23.0081 16.457 22.9337 16.55 22.84L24.7099 14.68C24.8115 14.5863 24.8925 14.4727 24.9479 14.3462C25.0033 14.2197 25.0319 14.0831 25.0319 13.945C25.0319 13.8069 25.0033 13.6703 24.9479 13.5438C24.8925 13.4173 24.8115 13.3036 24.7099 13.21Z" fill="#31CD63"/>
</svg>
