<svg width="145" height="24" viewBox="0 0 145 24" fill="none" xmlns="http://www.w3.org/2000/svg">
<path d="M11.18 23L7.19 15.38H7.16V23H0.5V1.76H10.4C12.12 1.76 13.59 2.07 14.81 2.69C16.03 3.29 16.94 4.12 17.54 5.18C18.16 6.22 18.47 7.4 18.47 8.72C18.47 10.14 18.07 11.4 17.27 12.5C16.49 13.6 15.36 14.39 13.88 14.87L18.5 23H11.18ZM7.16 10.94H9.8C10.44 10.94 10.92 10.8 11.24 10.52C11.56 10.22 11.72 9.76 11.72 9.14C11.72 8.58 11.55 8.14 11.21 7.82C10.89 7.5 10.42 7.34 9.8 7.34H7.16V10.94ZM28.6377 23.21C26.9377 23.21 25.4077 22.86 24.0477 22.16C22.6877 21.46 21.6177 20.46 20.8377 19.16C20.0777 17.84 19.6977 16.3 19.6977 14.54C19.6977 12.78 20.0777 11.25 20.8377 9.95C21.6177 8.63 22.6877 7.62 24.0477 6.92C25.4077 6.22 26.9377 5.87 28.6377 5.87C30.3377 5.87 31.8677 6.22 33.2277 6.92C34.5877 7.62 35.6477 8.63 36.4077 9.95C37.1877 11.25 37.5777 12.78 37.5777 14.54C37.5777 16.3 37.1877 17.84 36.4077 19.16C35.6477 20.46 34.5877 21.46 33.2277 22.16C31.8677 22.86 30.3377 23.21 28.6377 23.21ZM28.6377 17.45C29.2577 17.45 29.7777 17.21 30.1977 16.73C30.6177 16.23 30.8277 15.5 30.8277 14.54C30.8277 13.58 30.6177 12.86 30.1977 12.38C29.7777 11.88 29.2577 11.63 28.6377 11.63C28.0177 11.63 27.4977 11.88 27.0777 12.38C26.6577 12.86 26.4477 13.58 26.4477 14.54C26.4477 15.5 26.6477 16.23 27.0477 16.73C27.4677 17.21 27.9977 17.45 28.6377 17.45ZM46.3299 8.39C46.7499 7.61 47.3499 7 48.1299 6.56C48.9299 6.1 49.8799 5.87 50.9799 5.87C52.2999 5.87 53.4899 6.22 54.5499 6.92C55.6099 7.6 56.4399 8.6 57.0399 9.92C57.6599 11.22 57.9699 12.76 57.9699 14.54C57.9699 16.32 57.6599 17.87 57.0399 19.19C56.4399 20.49 55.6099 21.49 54.5499 22.19C53.4899 22.87 52.2999 23.21 50.9799 23.21C49.8799 23.21 48.9299 22.99 48.1299 22.55C47.3499 22.09 46.7499 21.47 46.3299 20.69V23H39.6699V0.8H46.3299V8.39ZM51.2199 14.54C51.2199 13.64 50.9899 12.94 50.5299 12.44C50.0699 11.94 49.4799 11.69 48.7599 11.69C48.0399 11.69 47.4499 11.94 46.9899 12.44C46.5299 12.94 46.2999 13.64 46.2999 14.54C46.2999 15.44 46.5299 16.14 46.9899 16.64C47.4499 17.14 48.0399 17.39 48.7599 17.39C49.4799 17.39 50.0699 17.14 50.5299 16.64C50.9899 16.14 51.2199 15.44 51.2199 14.54ZM68.1005 23.21C66.4005 23.21 64.8705 22.86 63.5105 22.16C62.1505 21.46 61.0805 20.46 60.3005 19.16C59.5405 17.84 59.1605 16.3 59.1605 14.54C59.1605 12.78 59.5405 11.25 60.3005 9.95C61.0805 8.63 62.1505 7.62 63.5105 6.92C64.8705 6.22 66.4005 5.87 68.1005 5.87C69.8005 5.87 71.3305 6.22 72.6905 6.92C74.0505 7.62 75.1105 8.63 75.8705 9.95C76.6505 11.25 77.0405 12.78 77.0405 14.54C77.0405 16.3 76.6505 17.84 75.8705 19.16C75.1105 20.46 74.0505 21.46 72.6905 22.16C71.3305 22.86 69.8005 23.21 68.1005 23.21ZM68.1005 17.45C68.7205 17.45 69.2405 17.21 69.6605 16.73C70.0805 16.23 70.2905 15.5 70.2905 14.54C70.2905 13.58 70.0805 12.86 69.6605 12.38C69.2405 11.88 68.7205 11.63 68.1005 11.63C67.4805 11.63 66.9605 11.88 66.5405 12.38C66.1205 12.86 65.9105 13.58 65.9105 14.54C65.9105 15.5 66.1105 16.23 66.5105 16.73C66.9305 17.21 67.4605 17.45 68.1005 17.45ZM95.8128 1.76V7.04H90.1728V23H83.5128V7.04H77.9328V1.76H95.8128ZM113.999 14.39C113.999 14.85 113.969 15.29 113.909 15.71H103.199C103.299 17.17 103.909 17.9 105.029 17.9C105.749 17.9 106.269 17.57 106.589 16.91H113.639C113.399 18.11 112.889 19.19 112.109 20.15C111.349 21.09 110.379 21.84 109.199 22.4C108.039 22.94 106.759 23.21 105.359 23.21C103.679 23.21 102.179 22.86 100.859 22.16C99.5591 21.46 98.5391 20.46 97.7991 19.16C97.0791 17.84 96.7191 16.3 96.7191 14.54C96.7191 12.78 97.0791 11.25 97.7991 9.95C98.5391 8.63 99.5591 7.62 100.859 6.92C102.179 6.22 103.679 5.87 105.359 5.87C107.039 5.87 108.529 6.22 109.829 6.92C111.149 7.6 112.169 8.58 112.889 9.86C113.629 11.14 113.999 12.65 113.999 14.39ZM107.249 12.8C107.249 12.24 107.069 11.82 106.709 11.54C106.349 11.24 105.899 11.09 105.359 11.09C104.179 11.09 103.489 11.66 103.289 12.8H107.249ZM123.635 23.21C122.035 23.21 120.615 22.95 119.375 22.43C118.155 21.91 117.185 21.19 116.465 20.27C115.745 19.35 115.335 18.31 115.235 17.15H121.625C121.705 17.65 121.915 18.02 122.255 18.26C122.615 18.5 123.065 18.62 123.605 18.62C123.945 18.62 124.215 18.55 124.415 18.41C124.615 18.25 124.715 18.06 124.715 17.84C124.715 17.46 124.505 17.19 124.085 17.03C123.665 16.87 122.955 16.69 121.955 16.49C120.735 16.25 119.725 15.99 118.925 15.71C118.145 15.43 117.455 14.95 116.855 14.27C116.275 13.59 115.985 12.65 115.985 11.45C115.985 10.41 116.255 9.47 116.795 8.63C117.355 7.77 118.175 7.1 119.255 6.62C120.335 6.12 121.645 5.87 123.185 5.87C125.465 5.87 127.245 6.43 128.525 7.55C129.825 8.67 130.605 10.13 130.865 11.93H124.955C124.855 11.47 124.645 11.12 124.325 10.88C124.005 10.62 123.575 10.49 123.035 10.49C122.695 10.49 122.435 10.56 122.255 10.7C122.075 10.82 121.985 11.01 121.985 11.27C121.985 11.61 122.195 11.87 122.615 12.05C123.035 12.21 123.705 12.38 124.625 12.56C125.845 12.8 126.875 13.07 127.715 13.37C128.555 13.67 129.285 14.19 129.905 14.93C130.525 15.65 130.835 16.65 130.835 17.93C130.835 18.93 130.545 19.83 129.965 20.63C129.385 21.43 128.545 22.06 127.445 22.52C126.365 22.98 125.095 23.21 123.635 23.21ZM144.009 17.33V23H141.489C136.849 23 134.529 20.69 134.529 16.07V11.63H132.429V6.08H134.529V2H141.189V6.08H143.949V11.63H141.189V16.19C141.189 16.59 141.279 16.88 141.459 17.06C141.659 17.24 141.979 17.33 142.419 17.33H144.009Z" fill="#111111"/>
</svg>
