<svg width="16" height="16" viewBox="0 0 16 16" fill="none" xmlns="http://www.w3.org/2000/svg">
<g id="target" clip-path="url(#clip0_2628_90)">
<path id="Vector" d="M8.00004 14.6667C11.6819 14.6667 14.6667 11.6819 14.6667 8.00004C14.6667 4.31814 11.6819 1.33337 8.00004 1.33337C4.31814 1.33337 1.33337 4.31814 1.33337 8.00004C1.33337 11.6819 4.31814 14.6667 8.00004 14.6667Z" stroke="#28A745" stroke-linecap="round" stroke-linejoin="round"/>
<path id="Vector_2" d="M8 12C10.2091 12 12 10.2091 12 8C12 5.79086 10.2091 4 8 4C5.79086 4 4 5.79086 4 8C4 10.2091 5.79086 12 8 12Z" stroke="#28A745" stroke-linecap="round" stroke-linejoin="round"/>
<path id="Vector_3" d="M7.99996 9.33329C8.73634 9.33329 9.33329 8.73634 9.33329 7.99996C9.33329 7.26358 8.73634 6.66663 7.99996 6.66663C7.26358 6.66663 6.66663 7.26358 6.66663 7.99996C6.66663 8.73634 7.26358 9.33329 7.99996 9.33329Z" stroke="#28A745" stroke-linecap="round" stroke-linejoin="round"/>
</g>
<defs>
<clipPath id="clip0_2628_90">
<rect width="16" height="16" fill="white"/>
</clipPath>
</defs>
</svg>
